<svg id="Layer_1" data-name="Layer 1" xmlns="http://www.w3.org/2000/svg" viewBox="0 0 55.63 102.48"><defs><style>.cls-1{fill:#fff;}.cls-2{fill:#231f20;}</style></defs><rect class="cls-1" width="55.63" height="102.48" rx="16.85"/><rect class="cls-1" x="26.07" width="29.56" height="102.48"/><path class="cls-2" d="M42.2,14.94A13.36,13.36,0,0,0,38,17a10.53,10.53,0,0,0-2.9,4.21c-.3,1-.37,1.07-1.89,1.56a15.28,15.28,0,0,0-8.5,7.51,16.76,16.76,0,0,0-2,8.55l0,2.83-1.05.69a13.71,13.71,0,0,0-4.2,4.69,13.48,13.48,0,0,0-1.54,6.57,13.05,13.05,0,0,0,2.81,8.53l.85,1.15L19,65.09a17.26,17.26,0,0,0-.22,7.75,13.16,13.16,0,0,0,6.72,8.43,7.61,7.61,0,0,0,4.1,1,10.06,10.06,0,0,0,3.4-.25l1.15-.34.1,2a7.33,7.33,0,0,0,.8,3.45c2.81,5.77,10.66,7.5,15.94,3.49a10.2,10.2,0,0,0,3.47-5.13c.34-1.59.36-20.5,0-20.5a11.29,11.29,0,0,0-3.81,1.85,24.84,24.84,0,0,0-5.67,6c-1.61,2.71-2.42,6.45-1.79,8.28.4,1.1.15,1.17-.83.22a6,6,0,0,1-1.51-5c.24-3.38,2.15-6.82,5.4-9.85,2.1-2,5.43-3.84,7.36-4.11l1.09-.17V58.39c0-2.15,0-3.88-.09-3.88s-.69.27-1.44.61a15.67,15.67,0,0,1-7.14,1.44c-6.87,0-12.32-3.42-12.34-7.75,0-.63.07-1.14.19-1.14a3.4,3.4,0,0,1,.79,1,11.16,11.16,0,0,0,4.83,3.62,18.5,18.5,0,0,0,14.11-.49l1.09-.46V43.27l-.66-.15A18.21,18.21,0,0,1,42.45,34c-1.74-3.3-2.08-6.21-1-8.45.49-1.06,1.76-2.47,2-2.23a2.76,2.76,0,0,1-.17,1.05c-.61,2.15.17,5.48,2,8.58s6.16,6.65,8.79,7.4l.74.23-.08-9.34-.07-9.34L54,20.49a10.55,10.55,0,0,0-4.06-4.42A11.57,11.57,0,0,0,42.2,14.94Z" transform="translate(-7.97 -1.94)"/></svg>